<?xml version="1.0" standalone="no"?>
<!DOCTYPE svg PUBLIC "-//W3C//DTD SVG 20010904//EN"
 "http://www.w3.org/TR/2001/REC-SVG-20010904/DTD/svg10.dtd">
<svg version="1.0" xmlns="http://www.w3.org/2000/svg"
 width="400.000000pt" height="400.000000pt" viewBox="0 0 400.000000 400.000000"
 preserveAspectRatio="xMidYMid meet">
<metadata>
Created by potrace 1.11, written by Peter Selinger 2001-2013
</metadata>
<g transform="translate(0.000000,400.000000) scale(0.100000,-0.100000)"
fill="#000000" stroke="none">
<path d="M18 3698 c19 -31 229 -394 389 -672 41 -70 82 -141 91 -157 10 -15
54 -92 100 -171 45 -79 127 -219 181 -313 55 -93 136 -233 180 -310 45 -77 88
-151 96 -165 76 -130 508 -877 535 -925 12 -22 26 -44 30 -50 4 -5 19 -30 32
-55 14 -25 74 -128 133 -230 116 -199 125 -215 174 -302 18 -32 37 -58 41 -58
4 0 46 66 91 146 46 80 92 160 103 177 20 35 350 605 438 757 30 52 88 151
128 220 40 68 81 138 90 155 15 26 360 622 563 970 38 66 78 136 89 155 11 19
37 64 58 100 21 36 47 81 58 100 10 19 80 139 154 266 74 128 138 238 142 245
6 14 31 56 68 117 l20 32 -773 -2 -773 -3 -64 -110 c-35 -60 -71 -123 -81
-140 -94 -172 -306 -525 -313 -523 -4 2 -108 176 -231 388 l-223 385 -773 3
-773 2 20 -32z"/>
</g>
</svg>
